<?xml version="1.0" encoding="UTF-8" standalone="no"?>
<!-- Created with Inkscape (http://www.inkscape.org/) -->

<svg
   width="93.856003mm"
   height="92.620003mm"
   viewBox="0 0 93.856003 92.620003"
   version="1.1"
   id="svg1513"
   inkscape:version="1.2-dev (8a200a5f, 2021-09-02)"
   sodipodi:docname="fan.svg"
   xmlns:inkscape="http://www.inkscape.org/namespaces/inkscape"
   xmlns:sodipodi="http://sodipodi.sourceforge.net/DTD/sodipodi-0.dtd"
   xmlns="http://www.w3.org/2000/svg"
   xmlns:svg="http://www.w3.org/2000/svg">
  <sodipodi:namedview
     id="namedview1515"
     pagecolor="#ffffff"
     bordercolor="#666666"
     borderopacity="1.0"
     inkscape:pageshadow="2"
     inkscape:pageopacity="0.0"
     inkscape:pagecheckerboard="0"
     inkscape:document-units="mm"
     showgrid="false"
     width="93.856mm"
     units="mm"
     inkscape:zoom="0.75544332"
     inkscape:cx="395.79409"
     inkscape:cy="456.02362"
     inkscape:window-width="2560"
     inkscape:window-height="1027"
     inkscape:window-x="-8"
     inkscape:window-y="-8"
     inkscape:window-maximized="1"
     inkscape:current-layer="layer1" />
  <defs
     id="defs1510" />
  <g
     inkscape:label="Warstwa 1"
     inkscape:groupmode="layer"
     id="layer1">
    <text
       class="cls-46"
       id="text584"
       style="font-weight:800;font-size:18.4573px;font-family:NunitoSans-Black, 'Nunito Sans';letter-spacing:-0.05em;fill:#1d1d1b;stroke-width:0.264583"
       x="30.146629"
       y="60.760231">F<tspan
   class="cls-47"
   x="39.83567"
   y="60.760231"
   id="tspan582"
   style="stroke-width:0.264583">AN</tspan></text>
    <path
       class="cls-28"
       d="M 29.202067,40.151833 C 29.096234,40.043354 29.061838,40.003667 28.998338,39.934875 L 28.84488,39.762896 28.556484,39.426875 c -0.185209,-0.22225 -0.362479,-0.441854 -0.529167,-0.661458 -0.346604,-0.441855 -0.672042,-0.886355 -0.98425,-1.338792 a 29.60952,29.60952 0 0 1 -1.722437,-2.812521 24.587729,24.587729 0 0 1 -2.365375,-6.275916 18.833041,18.833041 0 0 1 -0.264584,-6.913563 17.959916,17.959916 0 0 1 2.336271,-6.442604 22.82825,22.82825 0 0 1 4.1275,-5.0270826 33.644416,33.644416 0 0 1 4.929188,-3.733271 c 0.862541,-0.529167 1.730375,-1.042458 2.611437,-1.508125 l 0.661458,-0.351896 c 0.219604,-0.116417 0.431271,-0.216958 0.648229,-0.325437 l 0.645584,-0.3175 0.346604,-0.182563 0.357187,-0.177271 a 34.049229,34.049229 0 0 1 5.709709,-2.08227 36.247916,36.247916 0 0 1 11.871854,-1.20120896 33.363958,33.363958 0 0 1 11.44852,2.87072896 c 0.894292,0.402167 1.772709,0.838729 2.624667,1.322917 0.216958,0.113771 0.423333,0.238125 0.629708,0.357187 l 0.640292,0.373063 a 14.171083,14.171083 0 0 1 1.243542,0.85725 12.885208,12.885208 0 0 1 2.166937,2.079625 7.9189791,7.9189791 0 0 1 1.47373,2.6458326 5.7388124,5.7388124 0 0 1 0.10848,3.040063 7.3924582,7.3924582 0 0 1 -1.29911,2.661708 13.075708,13.075708 0 0 1 -2.000246,2.098146 22.243521,22.243521 0 0 1 -2.309812,1.709208 21.746104,21.746104 0 0 0 2.153708,-1.875896 12.403667,12.403667 0 0 0 1.778,-2.188104 6.8077291,6.8077291 0 0 0 1.00542,-2.54 4.8974374,4.8974374 0 0 0 -0.29634,-2.6035 6.9029791,6.9029791 0 0 0 -1.47108,-2.2092706 11.7475,11.7475 0 0 0 -2.100791,-1.717145 13.078354,13.078354 0 0 0 -1.17475,-0.677334 L 70.93215,5.9782504 c -0.214313,-0.100541 -0.428625,-0.206375 -0.640292,-0.298979 q -1.275291,-0.584729 -2.590271,-1.058333 a 31.025041,31.025041 0 0 0 -10.847916,-1.836209 33.017354,33.017354 0 0 0 -10.712979,1.942042 30.125458,30.125458 0 0 0 -4.886854,2.227792 l -0.264584,0.161396 -0.264583,0.174625 -0.60325,0.378354 c -0.201083,0.127 -0.407458,0.264583 -0.600604,0.378354 l -0.568854,0.381 c -0.759354,0.505354 -1.489604,1.042458 -2.203979,1.5874996 a 28.413604,28.413604 0 0 0 -3.892021,3.600979 17.327562,17.327562 0 0 0 -2.746375,4.101042 11.792479,11.792479 0 0 0 -1.11125,4.405312 12.258146,12.258146 0 0 0 0.648229,4.437063 17.4625,17.4625 0 0 0 2.116667,4.233333 21.251333,21.251333 0 0 0 1.476375,1.93675 c 0.264583,0.306916 0.529166,0.608541 0.806979,0.894291 0.137583,0.14023 0.264583,0.280459 0.41275,0.41275 l 0.201083,0.187855 0.0926,0.08467 c 0.02117,0.01852 0.07144,0.06085 0.05027,0.03704 A 4.0408902,4.0408902 0 0 1 29.19677,40.16771 Z"
       id="path586"
       style="fill:#1d1d1b;stroke-width:0.264583" />
    <path
       class="cls-28"
       d="m 67.437004,36.071958 c 0.145521,-0.0344 0.198438,-0.04498 0.288396,-0.06085 l 0.230187,-0.04233 0.436563,-0.07144 c 0.28575,-0.04498 0.563562,-0.08202 0.841375,-0.113771 0.555625,-0.0635 1.105958,-0.111125 1.656292,-0.142875 a 29.786791,29.786791 0 0 1 3.296708,0 24.60625,24.60625 0 0 1 6.590773,1.246188 18.880666,18.880666 0 0 1 6.04308,3.373437 17.944041,17.944041 0 0 1 4.2836,5.347229 22.838833,22.838833 0 0 1 2.13255,6.133042 33.382479,33.382479 0 0 1 0.61912,6.151562 c 0,1.013355 0,2.018771 -0.0688,3.01625 l -0.045,0.748771 c -0.0159,0.246063 -0.0397,0.481542 -0.0608,0.722313 l -0.0635,0.717021 -0.0238,0.388937 -0.037,0.396875 a 33.932812,33.932812 0 0 1 -1.19327,5.961059 36.165895,36.165895 0 0 1 -5.15673,10.7606 33.3375,33.3375 0 0 1 -8.40846,8.28146 q -1.21443,0.83344 -2.48972,1.5584 c -0.21167,0.12435 -0.42069,0.23548 -0.63236,0.34925 l -0.65352,0.35189 a 14.478,14.478 0 0 1 -1.375833,0.61648 12.850812,12.850812 0 0 1 -2.910417,0.76729 7.9110416,7.9110416 0 0 1 -3.040062,-0.127 5.7070624,5.7070624 0 0 1 -2.645834,-1.4896 7.3051457,7.3051457 0 0 1 -1.5875,-2.49502 12.779375,12.779375 0 0 1 -0.751416,-2.79929 22.137687,22.137687 0 0 1 -0.264583,-2.86015 22.344062,22.344062 0 0 0 0.481541,2.81517 12.583583,12.583583 0 0 0 0.944563,2.64583 6.7733332,6.7733332 0 0 0 1.643062,2.18017 4.9238958,4.9238958 0 0 0 2.38125,1.10331 6.9479582,6.9479582 0 0 0 2.645833,-0.10583 11.681354,11.681354 0 0 0 2.558521,-0.90223 13.245041,13.245041 0 0 0 1.193271,-0.64823 l 0.579438,-0.37836 c 0.198437,-0.12964 0.402166,-0.26458 0.590016,-0.38893 q 1.16153,-0.79375 2.24632,-1.66423 a 31.064729,31.064729 0 0 0 7.21254,-8.30792 32.953854,32.953854 0 0 0 3.91848,-10.15735 29.858229,29.858229 0 0 0 0.64293,-5.331352 v -0.3175 -0.325438 -0.714375 c 0,-0.235479 0,-0.478896 0,-0.709083 l -0.0291,-0.682625 c -0.037,-0.912813 -0.11377,-1.815042 -0.20902,-2.709333 a 28.575,28.575 0 0 0 -1.05833,-5.164667 17.224375,17.224375 0 0 0 -2.06904,-4.47675 11.863917,11.863917 0 0 0 -3.175,-3.246437 12.244917,12.244917 0 0 0 -4.12486,-1.754188 17.436041,17.436041 0 0 0 -4.709582,-0.386292 21.330708,21.330708 0 0 0 -2.420938,0.264584 c -0.399521,0.0635 -0.79375,0.140229 -1.185333,0.224896 -0.193146,0.04498 -0.383646,0.08996 -0.566208,0.137583 l -0.264584,0.07144 -0.119062,0.03704 c -0.0291,0 -0.08996,0.02646 -0.05821,0.02381 a 4.0375416,4.0375416 0 0 1 -2.042583,-7.8105 z"
       id="path588"
       style="fill:#1d1d1b;stroke-width:0.264583" />
    <path
       class="cls-28"
       d="m 51.860983,71.859496 c -0.03969,0.14552 -0.05821,0.1958 -0.08467,0.28046 l -0.07673,0.22225 -0.148167,0.4154 c -0.100542,0.26458 -0.203729,0.52916 -0.309563,0.79375 q -0.3175,0.77523 -0.674687,1.51606 a 29.49575,29.49575 0 0 1 -1.5875,2.88925 24.513646,24.513646 0 0 1 -4.280958,5.16202 18.835687,18.835687 0 0 1 -5.87375,3.65654 17.946687,17.946687 0 0 1 -6.754813,1.15888 22.846771,22.846771 0 0 1 -6.40027,-1.10332 33.655,33.655 0 0 1 -5.68325,-2.43416 c -0.886354,-0.48419 -1.762125,-0.9869 -2.6035,-1.52136 l -0.635,-0.40216 c -0.206375,-0.13229 -0.399521,-0.26459 -0.600604,-0.39952 l -0.597959,-0.40217 -0.328083,-0.21431 -0.330729,-0.22225 a 34.00425,34.00425 0 0 1 -4.6355,-3.92906 36.202937,36.202937 0 0 1 -6.924146,-9.7208 33.366604,33.366604 0 0 1 -3.175,-11.37708 C 0.063504,55.251604 0.007937,54.272646 0,53.296333 0,53.050271 0,52.812146 0,52.571375 v -0.740834 a 14.091708,14.091708 0 0 1 0.129646,-1.502833 12.991042,12.991042 0 0 1 0.732896,-2.910417 7.9374999,7.9374999 0 0 1 1.5875,-2.598208 5.7335208,5.7335208 0 0 1 2.587625,-1.5875 7.3659999,7.3659999 0 0 1 2.955395,-0.187854 12.797896,12.797896 0 0 1 2.812521,0.6985 21.566187,21.566187 0 0 1 2.627313,1.158875 21.375687,21.375687 0 0 0 -2.693459,-0.941917 12.594167,12.594167 0 0 0 -2.783416,-0.463021 6.8553541,6.8553541 0 0 0 -2.704042,0.383646 4.9344791,4.9344791 0 0 0 -2.116667,1.547813 6.9585416,6.9585416 0 0 0 -1.190625,2.38125 11.808354,11.808354 0 0 0 -0.449791,2.674937 c -0.02381,0.452438 -0.0291,0.910167 0,1.357313 l 0.04763,0.690562 c 0.01852,0.235479 0.03175,0.473604 0.05821,0.703792 0.08202,0.931333 0.206375,1.852083 0.367771,2.770187 a 31.117645,31.117645 0 0 0 3.77825,10.33463 33.072916,33.072916 0 0 0 6.990291,8.34495 30.120166,30.120166 0 0 0 4.355042,3.14325 l 0.264583,0.15611 0.28575,0.15346 0.627063,0.33866 0.627062,0.33338 0.613834,0.30427 c 0.814916,0.4101 1.640416,0.79375 2.468562,1.12977 a 28.503562,28.503562 0 0 0 5.027083,1.5875 17.234958,17.234958 0 0 0 4.92125,0.35454 11.776604,11.776604 0 0 0 4.3815,-1.21444 12.210521,12.210521 0 0 0 3.532188,-2.7596 17.4625,17.4625 0 0 0 2.619375,-3.93435 21.150791,21.150791 0 0 0 0.949854,-2.24103 c 0.137583,-0.381 0.264583,-0.76464 0.375708,-1.14564 0.05556,-0.18786 0.108479,-0.37836 0.156104,-0.56092 l 0.0635,-0.26458 0.02646,-0.12171 c 0,-0.0291 0.02117,-0.0926 0,-0.0635 a 4.0357529,4.0357529 0 1 1 7.821083,1.99496 z"
       id="path590"
       style="fill:#1d1d1b;stroke-width:0.264583" />
  </g>
</svg>
